<svg width="73" height="73" viewBox="0 0 73 73" fill="none" xmlns="http://www.w3.org/2000/svg">
<path d="M65.1177 8.25751H7.88228C5.47328 8.25751 3.51416 10.2166 3.51416 12.6256V52.5447C3.51416 54.9537 5.47328 56.9128 7.88228 56.9128H30.9282L30.0777 60.1656L26.9455 62.8615C26.6059 63.1535 26.4854 63.6255 26.6399 64.0448C26.7961 64.4641 27.195 64.7425 27.6432 64.7425H45.3567C45.8032 64.7425 46.2039 64.4641 46.3601 64.0448C46.5163 63.6255 46.394 63.1535 46.0545 62.8615L42.9223 60.1656L42.0717 56.9128H65.1177C67.5267 56.9128 69.4858 54.9537 69.4858 52.5447V12.6256C69.4858 10.2166 67.5267 8.25751 65.1177 8.25751ZM40.9377 61.0297C40.992 61.2402 41.1109 61.4287 41.2738 61.5696L42.4741 62.6035H30.5242L31.7244 61.5696C31.8891 61.4287 32.0062 61.2402 32.0606 61.0297L33.1369 56.9128H39.8597L40.9377 61.0297ZM67.3467 52.5447C67.3467 53.7739 66.3468 54.7738 65.1177 54.7738H40.8681C40.807 54.7636 40.7459 54.7568 40.683 54.7568H32.3169C32.2541 54.7568 32.193 54.7619 32.1319 54.7738H7.88228C6.65316 54.7738 5.65323 53.7739 5.65323 52.5447V12.6256C5.65323 11.3965 6.65316 10.3966 7.88228 10.3966H65.1194C66.3485 10.3966 67.3484 11.3965 67.3484 12.6256V52.5447H67.3467ZM64.0193 12.6562H8.98067C8.38988 12.6562 7.91114 13.1349 7.91114 13.7257V45.8253C7.91114 46.4161 8.38988 46.8949 8.98067 46.8949H64.0193C64.6101 46.8949 65.0888 46.4161 65.0888 45.8253V13.7257C65.0888 13.1349 64.6101 12.6562 64.0193 12.6562ZM62.9497 44.7558H10.0502V14.7953H62.9497V44.7558ZM38.4608 50.8505C38.4608 51.9336 37.5831 52.8113 36.5 52.8113C35.4169 52.8113 34.5392 51.9336 34.5392 50.8505C34.5392 49.7673 35.4169 48.8896 36.5 48.8896C37.5831 48.8896 38.4608 49.7673 38.4608 50.8505Z" fill="url(#paint0_linear_16_101)"/>
<defs>
<linearGradient id="paint0_linear_16_101" x1="9.12402" y1="5.20948" x2="63.8759" y2="59.9614" gradientUnits="userSpaceOnUse">
<stop stop-color="#CB5EEE"/>
<stop offset="1" stop-color="#4BE1EC"/>
</linearGradient>
</defs>
</svg>
