<svg width="1440" height="1018" viewBox="0 0 1440 1018" fill="none" xmlns="http://www.w3.org/2000/svg">
<mask id="mask0_32_167" style="mask-type:alpha" maskUnits="userSpaceOnUse" x="0" y="0" width="1440" height="1018">
<rect width="1440" height="1018" fill="#808080"/>
</mask>
<g mask="url(#mask0_32_167)">
<path d="M1038.36 135.673C1038.36 140.37 1034.03 144.278 1028.57 144.278C1023.11 144.278 1018.79 140.37 1018.79 135.673C1018.79 130.976 1023.11 127.067 1028.57 127.067C1034.03 127.067 1038.36 130.976 1038.36 135.673Z" stroke="#9E9E9E"/>
<path d="M40.6428 31.8694C40.6428 36.5666 36.3206 40.4749 30.8571 40.4749C25.3936 40.4749 21.0714 36.5666 21.0714 31.8694C21.0714 27.1722 25.3936 23.2639 30.8571 23.2639C36.3206 23.2639 40.6428 27.1722 40.6428 31.8694Z" stroke="#37474F"/>
<path d="M343.043 943.335C343.043 948.535 338.26 952.851 332.229 952.851C326.197 952.851 321.414 948.535 321.414 943.335C321.414 938.135 326.197 933.818 332.229 933.818C338.26 933.818 343.043 938.135 343.043 943.335Z" stroke="#9E9E9E"/>
<path d="M1327.39 776.248C1327.39 785.722 1318.69 793.504 1307.83 793.504C1296.97 793.504 1288.27 785.722 1288.27 776.248C1288.27 766.773 1296.97 758.992 1307.83 758.992C1318.69 758.992 1327.39 766.773 1327.39 776.248Z" stroke="#424242"/>
<path d="M940.643 333.263C940.643 343.995 930.795 352.795 918.514 352.795C906.234 352.795 896.386 343.995 896.386 333.263C896.386 322.531 906.234 313.731 918.514 313.731C930.795 313.731 940.643 322.531 940.643 333.263Z" stroke="#37474F"/>
<path d="M1074.36 903.725C1074.36 906.663 1071.65 909.144 1068.17 909.144C1064.7 909.144 1061.99 906.663 1061.99 903.725C1061.99 900.788 1064.7 898.307 1068.17 898.307C1071.65 898.307 1074.36 900.788 1074.36 903.725Z" stroke="#424242"/>
<path d="M1464.19 959.724C1464.19 968.445 1456.18 975.614 1446.17 975.614C1436.16 975.614 1428.16 968.445 1428.16 959.724C1428.16 951.004 1436.16 943.834 1446.17 943.834C1456.18 943.834 1464.19 951.004 1464.19 959.724Z" stroke="#424242"/>
<path d="M649.557 719.793C649.557 730.777 639.479 739.781 626.914 739.781C614.35 739.781 604.271 730.777 604.271 719.793C604.271 708.81 614.35 699.806 626.914 699.806C639.479 699.806 649.557 708.81 649.557 719.793Z" stroke="#424242"/>
<path d="M1043.5 333.718C1043.5 338.164 1039.41 341.868 1034.23 341.868C1029.05 341.868 1024.96 338.164 1024.96 333.718C1024.96 329.272 1029.05 325.568 1034.23 325.568C1039.41 325.568 1043.5 329.272 1043.5 333.718Z" stroke="#424242"/>
<path d="M182.586 451.635C182.586 459.852 175.04 466.614 165.6 466.614C156.16 466.614 148.614 459.852 148.614 451.635C148.614 443.418 156.16 436.656 165.6 436.656C175.04 436.656 182.586 443.418 182.586 451.635Z" stroke="#37474F"/>
<path d="M754.471 631.925C754.471 643.662 743.702 653.278 730.286 653.278C716.869 653.278 706.1 643.662 706.1 631.925C706.1 620.187 716.869 610.572 730.286 610.572C743.702 610.572 754.471 620.187 754.471 631.925Z" stroke="#9E9E9E"/>
<path d="M871.729 667.892C871.729 670.326 869.479 672.4 866.571 672.4C863.664 672.4 861.414 670.326 861.414 667.892C861.414 665.458 863.664 663.384 866.571 663.384C869.479 663.384 871.729 665.458 871.729 667.892Z" stroke="#424242"/>
<path d="M92.0714 626.462C92.0714 631.662 87.2887 635.978 81.2571 635.978C75.2255 635.978 70.4428 631.662 70.4428 626.462C70.4428 621.262 75.2255 616.946 81.2571 616.946C87.2887 616.946 92.0714 621.262 92.0714 626.462Z" stroke="#9E9E9E"/>
<path d="M501.443 893.254C501.443 901.974 493.437 909.144 483.429 909.144C473.421 909.144 465.414 901.974 465.414 893.254C465.414 884.534 473.421 877.364 483.429 877.364C493.437 877.364 501.443 884.534 501.443 893.254Z" stroke="#9E9E9E"/>
<path d="M1318.13 66.9257C1318.13 69.8628 1315.42 72.3444 1311.94 72.3444C1308.47 72.3444 1305.76 69.8628 1305.76 66.9257C1305.76 63.9887 1308.47 61.5071 1311.94 61.5071C1315.42 61.5071 1318.13 63.9887 1318.13 66.9257Z" stroke="#37474F"/>
<path d="M114.7 589.129C114.7 597.346 107.154 604.108 97.7143 604.108C88.2743 604.108 80.7286 597.346 80.7286 589.129C80.7286 580.911 88.2743 574.149 97.7143 574.149C107.154 574.149 114.7 580.911 114.7 589.129Z" stroke="#37474F"/>
<path d="M801.786 449.359C801.786 460.845 791.247 470.257 778.114 470.257C764.982 470.257 754.443 460.845 754.443 449.359C754.443 437.872 764.982 428.461 778.114 428.461C791.247 428.461 801.786 437.872 801.786 449.359Z" stroke="#424242"/>
<path d="M1053.79 854.1C1053.79 865.838 1043.02 875.453 1029.6 875.453C1016.18 875.453 1005.41 865.838 1005.41 854.1C1005.41 842.363 1016.18 832.747 1029.6 832.747C1043.02 832.747 1053.79 842.363 1053.79 854.1Z" stroke="#9E9E9E"/>
<path d="M313.214 148.42C313.214 158.146 304.287 166.131 293.143 166.131C281.999 166.131 273.072 158.146 273.072 148.42C273.072 138.694 281.999 130.709 293.143 130.709C304.287 130.709 313.214 138.694 313.214 148.42Z" stroke="#424242"/>
<path d="M832.643 777.614C832.643 785.328 825.558 791.682 816.686 791.682C807.814 791.682 800.729 785.328 800.729 777.614C800.729 769.899 807.814 763.545 816.686 763.545C825.558 763.545 832.643 769.899 832.643 777.614Z" stroke="#424242"/>
<path d="M825.443 225.817C825.443 230.515 821.121 234.423 815.657 234.423C810.194 234.423 805.871 230.515 805.871 225.817C805.871 221.12 810.194 217.212 815.657 217.212C821.121 217.212 825.443 221.12 825.443 225.817Z" stroke="#37474F"/>
<path d="M220.643 662.884C220.643 674.621 209.874 684.237 196.457 684.237C183.041 684.237 172.271 674.621 172.271 662.884C172.271 651.146 183.041 641.531 196.457 641.531C209.874 641.531 220.643 651.146 220.643 662.884Z" stroke="#37474F"/>
<path d="M1330.47 771.24C1330.47 776.943 1325.23 781.666 1318.63 781.666C1312.03 781.666 1306.79 776.943 1306.79 771.24C1306.79 765.537 1312.03 760.813 1318.63 760.813C1325.23 760.813 1330.47 765.537 1330.47 771.24Z" stroke="#9E9E9E"/>
<path d="M1221.44 484.415C1221.44 494.644 1212.06 503.037 1200.34 503.037C1188.63 503.037 1179.24 494.644 1179.24 484.415C1179.24 474.186 1188.63 465.793 1200.34 465.793C1212.06 465.793 1221.44 474.186 1221.44 484.415Z" stroke="#9E9E9E"/>
<path d="M1245.1 969.285C1245.1 980.771 1234.56 990.183 1221.43 990.183C1208.3 990.183 1197.76 980.771 1197.76 969.285C1197.76 957.799 1208.3 948.387 1221.43 948.387C1234.56 948.387 1245.1 957.799 1245.1 969.285Z" stroke="#37474F"/>
<path d="M229.9 514.463C229.9 525.698 219.591 534.906 206.743 534.906C193.894 534.906 183.586 525.698 183.586 514.463C183.586 503.229 193.894 494.021 206.743 494.021C219.591 494.021 229.9 503.229 229.9 514.463Z" stroke="#37474F"/>
<path d="M647.871 206.853C647.871 218.591 637.102 228.207 623.686 228.207C610.269 228.207 599.5 218.591 599.5 206.853C599.5 195.116 610.269 185.5 623.686 185.5C637.102 185.5 647.871 195.116 647.871 206.853Z" stroke="#9E9E9E"/>
<path d="M1170.87 777.853C1170.87 789.591 1160.1 799.207 1146.69 799.207C1133.27 799.207 1122.5 789.591 1122.5 777.853C1122.5 766.116 1133.27 756.5 1146.69 756.5C1160.1 756.5 1170.87 766.116 1170.87 777.853Z" stroke="#9E9E9E"/>
<path d="M145.871 894.853C145.871 906.591 135.102 916.207 121.686 916.207C108.269 916.207 97.5 906.591 97.5 894.853C97.5 883.116 108.269 873.5 121.686 873.5C135.102 873.5 145.871 883.116 145.871 894.853Z" stroke="#37474F"/>
<path d="M254.871 821.853C254.871 833.591 244.102 843.207 230.686 843.207C217.269 843.207 206.5 833.591 206.5 821.853C206.5 810.116 217.269 800.5 230.686 800.5C244.102 800.5 254.871 810.116 254.871 821.853Z" stroke="#37474F"/>
</g>
</svg>
