<svg width="470" height="38" viewBox="0 0 470 38" fill="none" xmlns="http://www.w3.org/2000/svg">
<path d="M1.02132 13.3829C1.02132 13.3829 495.026 -11.5135 421.841 13.1745C348.656 37.8625 278.433 35.5998 469.309 35.5052" stroke="#4484E4" stroke-width="4"/>
<path d="M460.365 13.5313L460.365 13.5313C460.45 13.6264 460.466 13.6454 460.508 13.7181C460.569 13.8249 460.666 14.0248 460.849 14.4674L460.849 14.4675C460.918 14.6346 461.021 15.0741 461.096 15.6174C461.17 16.1611 461.189 16.6104 461.167 16.7874L461.167 16.7875C461.073 17.5553 460.9 17.9131 460.407 18.8961C458.794 22.1102 457.693 23.665 455.781 24.773C453.771 25.9379 450.805 26.6519 445.243 27.8218C444.414 27.9962 444.255 28.0134 444.136 27.9948L444.136 27.9948C443.974 27.9695 443.818 27.8986 443.692 27.7926C443.599 27.7151 443.508 27.5845 443.094 26.8445L443.094 26.8444C440.211 21.6945 438.755 18.8654 438.322 16.5177C437.911 14.2883 438.417 12.4244 439.901 9.12787C440.367 8.09219 440.542 7.71834 441.053 7.17551L440.325 6.48984L441.053 7.17551C441.18 7.04088 441.523 6.77525 441.964 6.49565C442.404 6.21628 442.792 6.01842 442.97 5.96009C443.402 5.81839 443.617 5.765 443.75 5.7424C443.863 5.72335 443.93 5.72268 444.122 5.72481L444.122 5.72481C445.448 5.73953 446.291 6.20417 446.881 6.85491C447.503 7.54178 447.906 8.50688 448.174 9.59586C448.417 10.5795 448.53 11.5756 448.629 12.4492C448.639 12.5398 448.649 12.6292 448.659 12.7171C448.711 13.1631 448.766 13.6087 448.847 13.9622C448.887 14.1383 448.944 14.3422 449.036 14.5317C449.119 14.7024 449.298 15.008 449.661 15.1809C450.009 15.3468 450.347 15.3053 450.53 15.2673C450.733 15.2255 450.926 15.1494 451.088 15.0759C451.412 14.9285 451.791 14.7074 452.167 14.4825C452.259 14.4276 452.353 14.3714 452.448 14.3141C453.17 13.8801 453.989 13.3883 454.876 12.988C455.883 12.534 456.883 12.2432 457.808 12.2756C458.69 12.3064 459.557 12.6302 460.365 13.5313Z" fill="#FF4545" stroke="black" stroke-width="2"/>
</svg>
