<svg width="73" height="73" viewBox="0 0 73 73" fill="none" xmlns="http://www.w3.org/2000/svg">
<path d="M62.892 21.8898H10.697C7.20153 21.8898 4.35623 24.7334 4.35623 28.2306V44.7711C4.35623 48.2666 7.19984 51.1119 10.697 51.1119H62.892C66.3876 51.1119 69.2329 48.2683 69.2329 44.7711V28.2306C69.2329 24.7334 66.3876 21.8898 62.892 21.8898ZM67.1956 44.7694C67.1956 47.1427 65.2654 49.073 62.892 49.073H10.697C8.3237 49.073 6.39344 47.1427 6.39344 44.7694V28.2289C6.39344 25.8556 8.3237 23.9253 10.697 23.9253H62.892C65.2654 23.9253 67.1956 25.8556 67.1956 28.2289V44.7694ZM23.5332 32.3203L19.7983 36.556L23.5332 40.7917C23.905 41.2145 23.8642 41.8579 23.4432 42.2297C23.2496 42.4011 23.0086 42.4843 22.7692 42.4843C22.4874 42.4843 22.2056 42.3672 22.0053 42.1397L18.4401 38.0975L14.875 42.1397C14.673 42.3672 14.3929 42.4843 14.1111 42.4843C13.8717 42.4843 13.6306 42.4011 13.4371 42.2297C13.0144 41.8579 12.9753 41.2145 13.3471 40.7917L17.082 36.556L13.3471 32.3203C12.9753 31.8976 13.0161 31.2542 13.4371 30.8824C13.8581 30.5106 14.5032 30.5514 14.875 30.9724L18.4401 35.0146L22.0053 30.9724C22.377 30.5514 23.0205 30.5106 23.4432 30.8824C23.8642 31.2542 23.905 31.8976 23.5332 32.3203ZM32.1743 36.9346C32.1743 37.4966 31.7176 37.9532 31.1557 37.9532H26.2325C25.6705 37.9532 25.2139 37.4966 25.2139 36.9346C25.2139 36.3727 25.6705 35.916 26.2325 35.916H31.1557C31.7176 35.916 32.1743 36.371 32.1743 36.9346ZM50.2834 31.536V41.4657C50.2834 42.0276 49.8267 42.4843 49.2648 42.4843C48.7029 42.4843 48.2462 42.0276 48.2462 41.4657V33.9959L46.8524 35.3897C46.4552 35.787 45.81 35.787 45.4111 35.3897C45.0138 34.9925 45.0138 34.3474 45.4111 33.9501L48.545 30.8162C48.837 30.5242 49.275 30.4376 49.6553 30.5955C50.0356 30.7517 50.2834 31.1235 50.2834 31.536ZM41.3927 31.536V41.4657C41.3927 42.0276 40.936 42.4843 40.3741 42.4843C39.8122 42.4843 39.3555 42.0276 39.3555 41.4657V33.9959L37.9617 35.3897C37.5644 35.787 36.9193 35.787 36.5204 35.3897C36.1231 34.9925 36.1231 34.3474 36.5204 33.9501L39.6543 30.8162C39.9463 30.5242 40.3843 30.4376 40.7646 30.5955C41.1448 30.7517 41.3927 31.1235 41.3927 31.536ZM60.2878 30.9741C60.4796 31.227 60.5442 31.5547 60.4593 31.862L57.76 41.6711C57.636 42.1227 57.2252 42.4198 56.7787 42.4198C56.6887 42.4198 56.5988 42.4079 56.5071 42.3825C55.9655 42.2331 55.6464 41.6728 55.7958 41.1296L58.1403 32.6089H54.784C54.222 32.6089 53.7654 32.1523 53.7654 31.5903C53.7654 31.0284 54.222 30.5717 54.784 30.5717H59.478C59.7955 30.5717 60.096 30.7211 60.2878 30.9741ZM11.8786 45.0767C11.8786 45.827 11.2709 46.4348 10.5205 46.4348C9.77012 46.4348 9.15556 45.827 9.15556 45.0767C9.15556 44.3263 9.75653 43.7185 10.5069 43.7185H10.5222C11.2709 43.7185 11.8786 44.3263 11.8786 45.0767ZM11.8854 27.7723C11.8854 28.5226 11.2776 29.1304 10.5273 29.1304C9.77691 29.1304 9.16235 28.5226 9.16235 27.7723C9.16235 27.0219 9.76332 26.4141 10.5137 26.4141H10.529C11.2777 26.4141 11.8854 27.0219 11.8854 27.7723ZM63.7528 45.0767C63.7528 45.827 63.145 46.4348 62.3946 46.4348C61.6443 46.4348 61.0297 45.827 61.0297 45.0767C61.0297 44.3263 61.6307 43.7185 62.381 43.7185H62.3963C63.145 43.7185 63.7528 44.3263 63.7528 45.0767ZM63.7612 27.7723C63.7612 28.5226 63.1535 29.1304 62.4031 29.1304C61.6527 29.1304 61.0382 28.5226 61.0382 27.7723C61.0382 27.0219 61.6392 26.4141 62.3895 26.4141H62.4048C63.1535 26.4141 63.7612 27.0219 63.7612 27.7723Z" fill="url(#paint0_linear_14_99)"/>
<defs>
<linearGradient id="paint0_linear_14_99" x1="15.1294" y1="14.8351" x2="58.4592" y2="58.1649" gradientUnits="userSpaceOnUse">
<stop stop-color="#CB5EEE"/>
<stop offset="1" stop-color="#4BE1EC"/>
</linearGradient>
</defs>
</svg>
