<svg width="73" height="73" viewBox="0 0 73 73" fill="none" xmlns="http://www.w3.org/2000/svg">
<path d="M70.3312 44.9799V36.0959C70.3312 36.062 70.3279 36.0297 70.3245 35.9958C70.3295 35.9567 70.3312 35.9177 70.3312 35.8786C70.3312 35.5102 70.1445 35.1843 69.861 34.9924L61.0704 19.7066C60.8803 19.3755 60.5255 19.1701 60.1435 19.1701H49.9439V13.4439C49.9439 12.8531 49.4651 12.3743 48.8743 12.3743H5.8349C5.24411 12.3743 4.76537 12.8531 4.76537 13.4439V54.2169C4.76537 54.8043 5.23732 55.2814 5.82471 55.2864L9.3372 55.3204C9.3406 55.3204 9.34399 55.3204 9.34739 55.3204C9.36267 55.3204 9.37795 55.3187 9.39323 55.3187C9.9229 58.3609 12.5815 60.6817 15.7731 60.6817C18.9715 60.6817 21.6335 58.3524 22.1563 55.3C22.2259 55.3136 22.2973 55.3221 22.3703 55.3221H22.3719L48.8675 55.2881L52.689 55.3204C53.2204 58.3609 55.8772 60.6817 59.0689 60.6817C62.2605 60.6817 64.9191 58.3609 65.4487 55.3187C65.464 55.3187 65.481 55.3204 65.4963 55.3204C65.4997 55.3204 65.5031 55.3204 65.5065 55.3204L69.2719 55.2864C69.8593 55.2814 70.3312 54.8043 70.3312 54.2169V44.9934C70.3312 44.9917 70.3312 44.9883 70.3312 44.9867C70.3312 44.985 70.3312 44.9833 70.3312 44.9799ZM67.2873 34.8091H55.4936V25.645H62.0177L67.2873 34.8091ZM59.5238 21.3092L60.7869 23.506H54.4223C53.8316 23.506 53.3528 23.9847 53.3528 24.5755V35.8786C53.3528 36.4694 53.8316 36.9482 54.4223 36.9482H68.1905V43.9171H49.9439V21.3092H59.5238ZM6.90444 21.3092H47.8048V43.9188H6.90444V21.3092ZM47.8048 14.5134V19.1701H6.90444V14.5134H47.8048ZM15.7731 58.5409C13.3811 58.5409 11.4338 56.5937 11.4338 54.2016C11.4338 51.8096 13.3811 49.8624 15.7731 49.8624C18.1651 49.8624 20.1123 51.8096 20.1123 54.2016C20.1123 56.5937 18.1668 58.5409 15.7731 58.5409ZM22.3686 53.1813C22.3023 53.1813 22.2361 53.1881 22.1733 53.2C21.6895 50.1017 19.0038 47.725 15.7731 47.725C12.5475 47.725 9.86688 50.0933 9.37625 53.183C9.36946 53.183 9.36267 53.1813 9.35757 53.1813L6.90444 53.1576V46.0562H47.8048V53.1491L22.3686 53.1813ZM59.0689 58.5409C56.6769 58.5409 54.7296 56.5937 54.7296 54.2016C54.7296 51.8096 56.6752 49.8624 59.0689 49.8624C61.4626 49.8624 63.4081 51.8096 63.4081 54.2016C63.4081 56.5937 61.4609 58.5409 59.0689 58.5409ZM65.4861 53.1813C65.4793 53.1813 65.4725 53.183 65.464 53.183C64.9734 50.0933 62.2928 47.725 59.0672 47.725C55.8433 47.725 53.1627 50.0933 52.6703 53.1813L49.9422 53.1576V46.0579H68.1905V53.1593L65.4861 53.1813ZM60.9652 54.2016C60.9652 55.2474 60.1146 56.0979 59.0689 56.0979C58.0231 56.0979 57.1726 55.2474 57.1726 54.2016C57.1726 53.1559 58.0231 52.3053 59.0689 52.3053C60.1146 52.3053 60.9652 53.1559 60.9652 54.2016ZM17.6711 54.2016C17.6711 55.2474 16.8206 56.0979 15.7748 56.0979C14.729 56.0979 13.8785 55.2474 13.8785 54.2016C13.8785 53.1559 14.729 52.3053 15.7748 52.3053C16.8189 52.3053 17.6711 53.1559 17.6711 54.2016Z" fill="url(#paint0_linear_13_97)"/>
<defs>
<linearGradient id="paint0_linear_13_97" x1="6.76337" y1="11.0028" x2="60.3758" y2="64.6152" gradientUnits="userSpaceOnUse">
<stop stop-color="#CB5EEE"/>
<stop offset="1" stop-color="#4BE1EC"/>
</linearGradient>
</defs>
</svg>
